<svg width="3706" height="954" viewBox="0 0 3706 954" fill="none" xmlns="http://www.w3.org/2000/svg">
<ellipse cx="460.5" cy="333.5" rx="285.5" ry="61.5" fill="#935FA9"/>
<ellipse cx="460.5" cy="315" rx="285.5" ry="62" fill="#431A55"/>
<ellipse cx="457.5" cy="497" rx="285.5" ry="62" fill="#935FA9"/>
<ellipse cx="457.5" cy="478" rx="285.5" ry="62" fill="#431A55"/>
<ellipse cx="457.5" cy="660" rx="285.5" ry="62" fill="#935FA9"/>
<ellipse cx="460.5" cy="641.5" rx="285.5" ry="61.5" fill="#431A55"/>
<path d="M840 477C840 685.537 666.74 855 452.5 855C238.26 855 65 685.537 65 477C65 268.463 238.26 99 452.5 99C666.74 99 840 268.463 840 477Z" stroke="#935FA9" stroke-width="20"/>
<path d="M981 493V540.7H1130.7V574H941.1V379.9H1130.4V413.2H981V461.5H1103.4V493H981ZM1165.83 478H1266.03V507.4H1165.83V478ZM1424.17 379.9C1445.97 379.9 1464.17 382.5 1478.77 387.7C1493.37 392.9 1504.97 400 1513.57 409C1522.37 417.8 1528.57 428 1532.17 439.6C1535.97 451.2 1537.87 463.4 1537.87 476.2C1537.87 489 1535.77 501.3 1531.57 513.1C1527.57 524.9 1521.07 535.4 1512.07 544.6C1503.27 553.6 1491.57 560.8 1476.97 566.2C1462.57 571.4 1444.97 574 1424.17 574H1313.17V379.9H1424.17ZM1353.07 539.8H1423.27C1437.67 539.8 1449.57 538.1 1458.97 534.7C1468.57 531.1 1476.17 526.3 1481.77 520.3C1487.37 514.3 1491.37 507.5 1493.77 499.9C1496.17 492.3 1497.37 484.4 1497.37 476.2C1497.37 468 1496.17 460.2 1493.77 452.8C1491.37 445.4 1487.37 438.8 1481.77 433C1476.17 427.2 1468.57 422.6 1458.97 419.2C1449.57 415.8 1437.67 414.1 1423.27 414.1H1353.07V539.8ZM1582.54 379.9H1622.44V574H1582.54V379.9ZM1870.91 534.4L1858.31 539.5V379.9H1898.21V574H1858.31L1701.41 420.7L1714.01 415.6V574H1674.11V379.9H1714.01L1870.91 534.4ZM1974.82 531.7V498.4H2103.22V531.7H1974.82ZM1926.52 574L2017.72 379.9H2060.92L2153.02 574H2109.52L2029.72 399.1H2048.92L1969.72 574H1926.52ZM2181.24 574V379.9H2312.94C2327.94 379.9 2340.94 382 2351.94 386.2C2363.14 390.2 2371.84 396.6 2378.04 405.4C2384.24 414 2387.34 425.1 2387.34 438.7C2387.34 447.9 2385.74 455.7 2382.54 462.1C2379.34 468.5 2374.84 473.7 2369.04 477.7C2363.44 481.7 2356.94 484.8 2349.54 487C2342.14 489 2334.24 490.3 2325.84 490.9L2321.64 488.5C2335.64 488.7 2347.14 489.9 2356.14 492.1C2365.14 494.1 2371.84 497.9 2376.24 503.5C2380.84 508.9 2383.14 517 2383.14 527.8V574H2343.24V530.5C2343.24 523.1 2341.94 517.4 2339.34 513.4C2336.74 509.2 2332.04 506.3 2325.24 504.7C2318.64 503.1 2309.04 502.3 2296.44 502.3H2221.14V574H2181.24ZM2221.14 471.1H2312.94C2324.14 471.1 2332.64 468.4 2338.44 463C2344.44 457.6 2347.44 450.3 2347.44 441.1C2347.44 432.3 2344.44 425.6 2338.44 421C2332.64 416.4 2324.14 414.1 2312.94 414.1H2221.14V471.1ZM2727.95 504.1C2726.15 519.7 2720.65 533 2711.45 544C2702.25 555 2689.75 563.4 2673.95 569.2C2658.15 575 2639.35 577.9 2617.55 577.9C2599.35 577.9 2582.65 575.8 2567.45 571.6C2552.45 567.4 2539.45 561.1 2528.45 552.7C2517.65 544.3 2509.25 533.9 2503.25 521.5C2497.25 508.9 2494.25 494.2 2494.25 477.4C2494.25 460.6 2497.25 445.9 2503.25 433.3C2509.25 420.7 2517.65 410.2 2528.45 401.8C2539.45 393.2 2552.45 386.8 2567.45 382.6C2582.65 378.2 2599.35 376 2617.55 376C2639.35 376 2658.15 379 2673.95 385C2689.95 391 2702.55 399.6 2711.75 410.8C2720.95 421.8 2726.35 435.2 2727.95 451H2688.35C2685.75 442.6 2681.35 435.4 2675.15 429.4C2669.15 423.2 2661.35 418.5 2651.75 415.3C2642.15 412.1 2630.75 410.5 2617.55 410.5C2601.15 410.5 2586.75 413.1 2574.35 418.3C2561.95 423.3 2552.35 430.8 2545.55 440.8C2538.75 450.6 2535.35 462.8 2535.35 477.4C2535.35 491.8 2538.75 503.9 2545.55 513.7C2552.35 523.5 2561.95 531 2574.35 536.2C2586.75 541.2 2601.15 543.7 2617.55 543.7C2630.75 543.7 2642.05 542.1 2651.45 538.9C2661.05 535.7 2668.85 531.1 2674.85 525.1C2681.05 519.1 2685.55 512.1 2688.35 504.1H2727.95ZM2801.98 460H2955.88V493.3H2801.98V460ZM2949.28 379.9H2989.18V574H2949.28V379.9ZM2766.88 379.9H2806.78V574H2766.88V379.9ZM3065.54 531.7V498.4H3193.94V531.7H3065.54ZM3017.24 574L3108.44 379.9H3151.64L3243.74 574H3200.24L3120.44 399.1H3139.64L3060.44 574H3017.24ZM3277.66 379.9H3317.56V574H3277.66V379.9ZM3566.03 534.4L3553.43 539.5V379.9H3593.33V574H3553.43L3396.53 420.7L3409.13 415.6V574H3369.23V379.9H3409.13L3566.03 534.4Z" fill="#431A55"/>
</svg>
