<svg width="2445" height="954" viewBox="0 0 2445 954" fill="none" xmlns="http://www.w3.org/2000/svg">
<path d="M745.5 333.5C745.5 337.577 743.584 341.605 739.837 345.55C736.088 349.497 730.534 353.328 723.337 356.993C708.946 364.322 688.089 370.937 662.274 376.498C610.652 387.618 539.314 394.5 460.5 394.5C381.686 394.5 310.348 387.618 258.726 376.498C232.911 370.937 212.054 364.322 197.663 356.993C190.467 353.328 184.912 349.497 181.163 345.55C177.416 341.605 175.5 337.577 175.5 333.5C175.5 329.423 177.416 325.395 181.163 321.45C184.912 317.503 190.467 313.672 197.663 310.007C212.054 302.678 232.911 296.063 258.726 290.502C310.348 279.382 381.686 272.5 460.5 272.5C539.314 272.5 610.652 279.382 662.274 290.502C688.089 296.063 708.946 302.678 723.337 310.007C730.534 313.672 736.088 317.503 739.837 321.45C743.584 325.395 745.5 329.423 745.5 333.5Z" fill="white" stroke="white"/>
<path d="M746 315C746 349.242 618.177 377 460.5 377C302.823 377 175 349.242 175 315C175 280.758 302.823 253 460.5 253C618.177 253 746 280.758 746 315Z" fill="#895B9C"/>
<path d="M746 315C746 349.242 618.177 377 460.5 377C302.823 377 175 349.242 175 315C175 280.758 302.823 253 460.5 253C618.177 253 746 280.758 746 315Z" stroke="#431A55"/>
<path d="M742.5 497C742.5 501.113 740.583 505.176 736.836 509.152C733.086 513.131 727.532 516.994 720.336 520.688C705.945 528.077 685.088 534.746 659.273 540.352C607.652 551.562 536.314 558.5 457.5 558.5C378.686 558.5 307.348 551.562 255.727 540.352C229.912 534.746 209.056 528.077 194.664 520.688C187.468 516.994 181.914 513.131 178.164 509.152C174.417 505.176 172.5 501.113 172.5 497C172.5 492.887 174.417 488.824 178.164 484.848C181.914 480.869 187.468 477.006 194.664 473.312C209.056 465.923 229.912 459.254 255.727 453.648C307.348 442.438 378.686 435.5 457.5 435.5C536.314 435.5 607.652 442.438 659.273 453.648C685.088 459.254 705.945 465.923 720.336 473.312C727.532 477.006 733.086 480.869 736.836 484.848C740.583 488.824 742.5 492.887 742.5 497Z" fill="white" stroke="white"/>
<path d="M742.5 478C742.5 482.113 740.583 486.176 736.836 490.152C733.086 494.131 727.532 497.994 720.336 501.688C705.945 509.077 685.088 515.746 659.273 521.352C607.652 532.562 536.314 539.5 457.5 539.5C378.686 539.5 307.348 532.562 255.727 521.352C229.912 515.746 209.056 509.077 194.664 501.688C187.468 497.994 181.914 494.131 178.164 490.152C174.417 486.176 172.5 482.113 172.5 478C172.5 473.887 174.417 469.824 178.164 465.848C181.914 461.869 187.468 458.006 194.664 454.312C209.056 446.923 229.912 440.254 255.727 434.648C307.348 423.438 378.686 416.5 457.5 416.5C536.314 416.5 607.652 423.438 659.273 434.648C685.088 440.254 705.945 446.923 720.336 454.312C727.532 458.006 733.086 461.869 736.836 465.848C740.583 469.824 742.5 473.887 742.5 478Z" fill="#895B9C" stroke="white"/>
<path d="M742.5 660C742.5 664.113 740.583 668.176 736.836 672.152C733.086 676.131 727.532 679.994 720.336 683.688C705.945 691.077 685.088 697.746 659.273 703.352C607.652 714.562 536.314 721.5 457.5 721.5C378.686 721.5 307.348 714.562 255.727 703.352C229.912 697.746 209.056 691.077 194.664 683.688C187.468 679.994 181.914 676.131 178.164 672.152C174.417 668.176 172.5 664.113 172.5 660C172.5 655.887 174.417 651.824 178.164 647.848C181.914 643.869 187.468 640.006 194.664 636.312C209.056 628.923 229.912 622.254 255.727 616.648C307.348 605.438 378.686 598.5 457.5 598.5C536.314 598.5 607.652 605.438 659.273 616.648C685.088 622.254 705.945 628.923 720.336 636.312C727.532 640.006 733.086 643.869 736.836 647.848C740.583 651.824 742.5 655.887 742.5 660Z" fill="white" stroke="white"/>
<path d="M745.5 641.5C745.5 645.577 743.584 649.605 739.837 653.55C736.088 657.497 730.534 661.328 723.337 664.993C708.946 672.322 688.089 678.937 662.274 684.498C610.652 695.618 539.314 702.5 460.5 702.5C381.686 702.5 310.348 695.618 258.726 684.498C232.911 678.937 212.054 672.322 197.663 664.993C190.467 661.328 184.912 657.497 181.163 653.55C177.416 649.605 175.5 645.577 175.5 641.5C175.5 637.423 177.416 633.395 181.163 629.45C184.912 625.503 190.467 621.672 197.663 618.007C212.054 610.678 232.911 604.063 258.726 598.502C310.348 587.382 381.686 580.5 460.5 580.5C539.314 580.5 610.652 587.382 662.274 598.502C688.089 604.063 708.946 610.678 723.337 618.007C730.534 621.672 736.088 625.503 739.837 629.45C743.584 633.395 745.5 637.423 745.5 641.5Z" fill="#895B9C" stroke="white"/>
<path d="M840 477C840 685.537 666.74 855 452.5 855C238.26 855 65 685.537 65 477C65 268.463 238.26 99 452.5 99C666.74 99 840 268.463 840 477Z" stroke="white" stroke-width="20"/>
<path d="M963.5 493.5V517.35H1038.35V534H943.55V436.95H1038.2V453.6H963.5V477.75H1024.7V493.5H963.5ZM1055.91 486H1106.01V500.7H1055.91V486ZM1185.09 436.95C1195.99 436.95 1205.09 438.25 1212.39 440.85C1219.69 443.45 1225.49 447 1229.79 451.5C1234.19 455.9 1237.29 461 1239.09 466.8C1240.99 472.6 1241.94 478.7 1241.94 485.1C1241.94 491.5 1240.89 497.65 1238.79 503.55C1236.79 509.45 1233.54 514.7 1229.04 519.3C1224.64 523.8 1218.79 527.4 1211.49 530.1C1204.29 532.7 1195.49 534 1185.09 534H1129.59V436.95H1185.09ZM1149.54 516.9H1184.64C1191.84 516.9 1197.79 516.05 1202.49 514.35C1207.29 512.55 1211.09 510.15 1213.89 507.15C1216.69 504.15 1218.69 500.75 1219.89 496.95C1221.09 493.15 1221.69 489.2 1221.69 485.1C1221.69 481 1221.09 477.1 1219.89 473.4C1218.69 469.7 1216.69 466.4 1213.89 463.5C1211.09 460.6 1207.29 458.3 1202.49 456.6C1197.79 454.9 1191.84 454.05 1184.64 454.05H1149.54V516.9ZM1264.27 436.95H1284.22V534H1264.27V436.95ZM1408.45 514.2L1402.15 516.75V436.95H1422.1V534H1402.15L1323.7 457.35L1330 454.8V534H1310.05V436.95H1330L1408.45 514.2ZM1460.41 512.85V496.2H1524.61V512.85H1460.41ZM1436.26 534L1481.86 436.95H1503.46L1549.51 534H1527.76L1487.86 446.55H1497.46L1457.86 534H1436.26ZM1563.62 534V436.95H1629.47C1636.97 436.95 1643.47 438 1648.97 440.1C1654.57 442.1 1658.92 445.3 1662.02 449.7C1665.12 454 1666.67 459.55 1666.67 466.35C1666.67 470.95 1665.87 474.85 1664.27 478.05C1662.67 481.25 1660.42 483.85 1657.52 485.85C1654.72 487.85 1651.47 489.4 1647.77 490.5C1644.07 491.5 1640.12 492.15 1635.92 492.45L1633.82 491.25C1640.82 491.35 1646.57 491.95 1651.07 493.05C1655.57 494.05 1658.92 495.95 1661.12 498.75C1663.42 501.45 1664.57 505.5 1664.57 510.9V534H1644.62V512.25C1644.62 508.55 1643.97 505.7 1642.67 503.7C1641.37 501.6 1639.02 500.15 1635.62 499.35C1632.32 498.55 1627.52 498.15 1621.22 498.15H1583.57V534H1563.62ZM1583.57 482.55H1629.47C1635.07 482.55 1639.32 481.2 1642.22 478.5C1645.22 475.8 1646.72 472.15 1646.72 467.55C1646.72 463.15 1645.22 459.8 1642.22 457.5C1639.32 455.2 1635.07 454.05 1629.47 454.05H1583.57V482.55ZM1836.98 499.05C1836.08 506.85 1833.33 513.5 1828.73 519C1824.13 524.5 1817.88 528.7 1809.98 531.6C1802.08 534.5 1792.68 535.95 1781.78 535.95C1772.68 535.95 1764.33 534.9 1756.73 532.8C1749.23 530.7 1742.73 527.55 1737.23 523.35C1731.83 519.15 1727.63 513.95 1724.63 507.75C1721.63 501.45 1720.13 494.1 1720.13 485.7C1720.13 477.3 1721.63 469.95 1724.63 463.65C1727.63 457.35 1731.83 452.1 1737.23 447.9C1742.73 443.6 1749.23 440.4 1756.73 438.3C1764.33 436.1 1772.68 435 1781.78 435C1792.68 435 1802.08 436.5 1809.98 439.5C1817.98 442.5 1824.28 446.8 1828.88 452.4C1833.48 457.9 1836.18 464.6 1836.98 472.5H1817.18C1815.88 468.3 1813.68 464.7 1810.58 461.7C1807.58 458.6 1803.68 456.25 1798.88 454.65C1794.08 453.05 1788.38 452.25 1781.78 452.25C1773.58 452.25 1766.38 453.55 1760.18 456.15C1753.98 458.65 1749.18 462.4 1745.78 467.4C1742.38 472.3 1740.68 478.4 1740.68 485.7C1740.68 492.9 1742.38 498.95 1745.78 503.85C1749.18 508.75 1753.98 512.5 1760.18 515.1C1766.38 517.6 1773.58 518.85 1781.78 518.85C1788.38 518.85 1794.03 518.05 1798.73 516.45C1803.53 514.85 1807.43 512.55 1810.43 509.55C1813.53 506.55 1815.78 503.05 1817.18 499.05H1836.98ZM1873.99 477H1950.94V493.65H1873.99V477ZM1947.64 436.95H1967.59V534H1947.64V436.95ZM1856.44 436.95H1876.39V534H1856.44V436.95ZM2005.77 512.85V496.2H2069.97V512.85H2005.77ZM1981.62 534L2027.22 436.95H2048.82L2094.87 534H2073.12L2033.22 446.55H2042.82L2003.22 534H1981.62ZM2111.83 436.95H2131.78V534H2111.83V436.95ZM2256.01 514.2L2249.71 516.75V436.95H2269.66V534H2249.71L2171.26 457.35L2177.56 454.8V534H2157.61V436.95H2177.56L2256.01 514.2Z" fill="white"/>
</svg>
