<svg width="2445" height="954" viewBox="0 0 2445 954" fill="none" xmlns="http://www.w3.org/2000/svg">
<ellipse cx="460.5" cy="333.5" rx="285.5" ry="61.5" fill="#935FA9"/>
<ellipse cx="460.5" cy="315" rx="285.5" ry="62" fill="#431A55"/>
<ellipse cx="457.5" cy="497" rx="285.5" ry="62" fill="#935FA9"/>
<ellipse cx="457.5" cy="478" rx="285.5" ry="62" fill="#431A55"/>
<ellipse cx="457.5" cy="660" rx="285.5" ry="62" fill="#935FA9"/>
<ellipse cx="460.5" cy="641.5" rx="285.5" ry="61.5" fill="#431A55"/>
<path d="M840 477C840 685.537 666.74 855 452.5 855C238.26 855 65 685.537 65 477C65 268.463 238.26 99 452.5 99C666.74 99 840 268.463 840 477Z" stroke="#935FA9" stroke-width="20"/>
<path d="M963.5 493.5V517.35H1038.35V534H943.55V436.95H1038.2V453.6H963.5V477.75H1024.7V493.5H963.5ZM1055.91 486H1106.01V500.7H1055.91V486ZM1185.09 436.95C1195.99 436.95 1205.09 438.25 1212.39 440.85C1219.69 443.45 1225.49 447 1229.79 451.5C1234.19 455.9 1237.29 461 1239.09 466.8C1240.99 472.6 1241.94 478.7 1241.94 485.1C1241.94 491.5 1240.89 497.65 1238.79 503.55C1236.79 509.45 1233.54 514.7 1229.04 519.3C1224.64 523.8 1218.79 527.4 1211.49 530.1C1204.29 532.7 1195.49 534 1185.09 534H1129.59V436.95H1185.09ZM1149.54 516.9H1184.64C1191.84 516.9 1197.79 516.05 1202.49 514.35C1207.29 512.55 1211.09 510.15 1213.89 507.15C1216.69 504.15 1218.69 500.75 1219.89 496.95C1221.09 493.15 1221.69 489.2 1221.69 485.1C1221.69 481 1221.09 477.1 1219.89 473.4C1218.69 469.7 1216.69 466.4 1213.89 463.5C1211.09 460.6 1207.29 458.3 1202.49 456.6C1197.79 454.9 1191.84 454.05 1184.64 454.05H1149.54V516.9ZM1264.27 436.95H1284.22V534H1264.27V436.95ZM1408.45 514.2L1402.15 516.75V436.95H1422.1V534H1402.15L1323.7 457.35L1330 454.8V534H1310.05V436.95H1330L1408.45 514.2ZM1460.41 512.85V496.2H1524.61V512.85H1460.41ZM1436.26 534L1481.86 436.95H1503.46L1549.51 534H1527.76L1487.86 446.55H1497.46L1457.86 534H1436.26ZM1563.62 534V436.95H1629.47C1636.97 436.95 1643.47 438 1648.97 440.1C1654.57 442.1 1658.92 445.3 1662.02 449.7C1665.12 454 1666.67 459.55 1666.67 466.35C1666.67 470.95 1665.87 474.85 1664.27 478.05C1662.67 481.25 1660.42 483.85 1657.52 485.85C1654.72 487.85 1651.47 489.4 1647.77 490.5C1644.07 491.5 1640.12 492.15 1635.92 492.45L1633.82 491.25C1640.82 491.35 1646.57 491.95 1651.07 493.05C1655.57 494.05 1658.92 495.95 1661.12 498.75C1663.42 501.45 1664.57 505.5 1664.57 510.9V534H1644.62V512.25C1644.62 508.55 1643.97 505.7 1642.67 503.7C1641.37 501.6 1639.02 500.15 1635.62 499.35C1632.32 498.55 1627.52 498.15 1621.22 498.15H1583.57V534H1563.62ZM1583.57 482.55H1629.47C1635.07 482.55 1639.32 481.2 1642.22 478.5C1645.22 475.8 1646.72 472.15 1646.72 467.55C1646.72 463.15 1645.22 459.8 1642.22 457.5C1639.32 455.2 1635.07 454.05 1629.47 454.05H1583.57V482.55ZM1836.98 499.05C1836.08 506.85 1833.33 513.5 1828.73 519C1824.13 524.5 1817.88 528.7 1809.98 531.6C1802.08 534.5 1792.68 535.95 1781.78 535.95C1772.68 535.95 1764.33 534.9 1756.73 532.8C1749.23 530.7 1742.73 527.55 1737.23 523.35C1731.83 519.15 1727.63 513.95 1724.63 507.75C1721.63 501.45 1720.13 494.1 1720.13 485.7C1720.13 477.3 1721.63 469.95 1724.63 463.65C1727.63 457.35 1731.83 452.1 1737.23 447.9C1742.73 443.6 1749.23 440.4 1756.73 438.3C1764.33 436.1 1772.68 435 1781.78 435C1792.68 435 1802.08 436.5 1809.98 439.5C1817.98 442.5 1824.28 446.8 1828.88 452.4C1833.48 457.9 1836.18 464.6 1836.98 472.5H1817.18C1815.88 468.3 1813.68 464.7 1810.58 461.7C1807.58 458.6 1803.68 456.25 1798.88 454.65C1794.08 453.05 1788.38 452.25 1781.78 452.25C1773.58 452.25 1766.38 453.55 1760.18 456.15C1753.98 458.65 1749.18 462.4 1745.78 467.4C1742.38 472.3 1740.68 478.4 1740.68 485.7C1740.68 492.9 1742.38 498.95 1745.78 503.85C1749.18 508.75 1753.98 512.5 1760.18 515.1C1766.38 517.6 1773.58 518.85 1781.78 518.85C1788.38 518.85 1794.03 518.05 1798.73 516.45C1803.53 514.85 1807.43 512.55 1810.43 509.55C1813.53 506.55 1815.78 503.05 1817.18 499.05H1836.98ZM1873.99 477H1950.94V493.65H1873.99V477ZM1947.64 436.95H1967.59V534H1947.64V436.95ZM1856.44 436.95H1876.39V534H1856.44V436.95ZM2005.77 512.85V496.2H2069.97V512.85H2005.77ZM1981.62 534L2027.22 436.95H2048.82L2094.87 534H2073.12L2033.22 446.55H2042.82L2003.22 534H1981.62ZM2111.83 436.95H2131.78V534H2111.83V436.95ZM2256.01 514.2L2249.71 516.75V436.95H2269.66V534H2249.71L2171.26 457.35L2177.56 454.8V534H2157.61V436.95H2177.56L2256.01 514.2Z" fill="#431A55"/>
</svg>
