<svg width="795" height="776" viewBox="0 0 795 776" fill="none" xmlns="http://www.w3.org/2000/svg">
<path d="M690.5 244.5C690.5 248.577 688.584 252.605 684.837 256.55C681.088 260.497 675.534 264.328 668.337 267.993C653.946 275.322 633.089 281.937 607.274 287.498C555.652 298.618 484.314 305.5 405.5 305.5C326.686 305.5 255.348 298.618 203.726 287.498C177.911 281.937 157.054 275.322 142.663 267.993C135.467 264.328 129.912 260.497 126.163 256.55C122.416 252.605 120.5 248.577 120.5 244.5C120.5 240.423 122.416 236.395 126.163 232.45C129.912 228.503 135.467 224.672 142.663 221.007C157.054 213.678 177.911 207.063 203.726 201.502C255.348 190.382 326.686 183.5 405.5 183.5C484.314 183.5 555.652 190.382 607.274 201.502C633.089 207.063 653.946 213.678 668.337 221.007C675.534 224.672 681.088 228.503 684.837 232.45C688.584 236.395 690.5 240.423 690.5 244.5Z" fill="white" stroke="white"/>
<path d="M691 226C691 260.242 563.177 288 405.5 288C247.823 288 120 260.242 120 226C120 191.758 247.823 164 405.5 164C563.177 164 691 191.758 691 226Z" fill="#895B9C"/>
<path d="M691 226C691 260.242 563.177 288 405.5 288C247.823 288 120 260.242 120 226C120 191.758 247.823 164 405.5 164C563.177 164 691 191.758 691 226Z" stroke="#431A55"/>
<path d="M687.5 408C687.5 412.113 685.583 416.176 681.836 420.152C678.086 424.131 672.532 427.994 665.336 431.688C650.945 439.077 630.088 445.746 604.273 451.352C552.652 462.562 481.314 469.5 402.5 469.5C323.686 469.5 252.348 462.562 200.727 451.352C174.912 445.746 154.056 439.077 139.664 431.688C132.468 427.994 126.914 424.131 123.164 420.152C119.417 416.176 117.5 412.113 117.5 408C117.5 403.887 119.417 399.824 123.164 395.848C126.914 391.869 132.468 388.006 139.664 384.312C154.056 376.923 174.912 370.254 200.727 364.648C252.348 353.438 323.686 346.5 402.5 346.5C481.314 346.5 552.652 353.438 604.273 364.648C630.088 370.254 650.945 376.923 665.336 384.312C672.532 388.006 678.086 391.869 681.836 395.848C685.583 399.824 687.5 403.887 687.5 408Z" fill="white" stroke="white"/>
<path d="M687.5 389C687.5 393.113 685.583 397.176 681.836 401.152C678.086 405.131 672.532 408.994 665.336 412.688C650.945 420.077 630.088 426.746 604.273 432.352C552.652 443.562 481.314 450.5 402.5 450.5C323.686 450.5 252.348 443.562 200.727 432.352C174.912 426.746 154.056 420.077 139.664 412.688C132.468 408.994 126.914 405.131 123.164 401.152C119.417 397.176 117.5 393.113 117.5 389C117.5 384.887 119.417 380.824 123.164 376.848C126.914 372.869 132.468 369.006 139.664 365.312C154.056 357.923 174.912 351.254 200.727 345.648C252.348 334.438 323.686 327.5 402.5 327.5C481.314 327.5 552.652 334.438 604.273 345.648C630.088 351.254 650.945 357.923 665.336 365.312C672.532 369.006 678.086 372.869 681.836 376.848C685.583 380.824 687.5 384.887 687.5 389Z" fill="#895B9C" stroke="white"/>
<path d="M687.5 571C687.5 575.113 685.583 579.176 681.836 583.152C678.086 587.131 672.532 590.994 665.336 594.688C650.945 602.077 630.088 608.746 604.273 614.352C552.652 625.562 481.314 632.5 402.5 632.5C323.686 632.5 252.348 625.562 200.727 614.352C174.912 608.746 154.056 602.077 139.664 594.688C132.468 590.994 126.914 587.131 123.164 583.152C119.417 579.176 117.5 575.113 117.5 571C117.5 566.887 119.417 562.824 123.164 558.848C126.914 554.869 132.468 551.006 139.664 547.312C154.056 539.923 174.912 533.254 200.727 527.648C252.348 516.438 323.686 509.5 402.5 509.5C481.314 509.5 552.652 516.438 604.273 527.648C630.088 533.254 650.945 539.923 665.336 547.312C672.532 551.006 678.086 554.869 681.836 558.848C685.583 562.824 687.5 566.887 687.5 571Z" fill="white" stroke="white"/>
<path d="M690.5 552.5C690.5 556.577 688.584 560.605 684.837 564.55C681.088 568.497 675.534 572.328 668.337 575.993C653.946 583.322 633.089 589.937 607.274 595.498C555.652 606.618 484.314 613.5 405.5 613.5C326.686 613.5 255.348 606.618 203.726 595.498C177.911 589.937 157.054 583.322 142.663 575.993C135.467 572.328 129.912 568.497 126.163 564.55C122.416 560.605 120.5 556.577 120.5 552.5C120.5 548.423 122.416 544.395 126.163 540.45C129.912 536.503 135.467 532.672 142.663 529.007C157.054 521.678 177.911 515.063 203.726 509.502C255.348 498.382 326.686 491.5 405.5 491.5C484.314 491.5 555.652 498.382 607.274 509.502C633.089 515.063 653.946 521.678 668.337 529.007C675.534 532.672 681.088 536.503 684.837 540.45C688.584 544.395 690.5 548.423 690.5 552.5Z" fill="#895B9C" stroke="white"/>
<path d="M785 388C785 596.537 611.74 766 397.5 766C183.26 766 10 596.537 10 388C10 179.463 183.26 10 397.5 10C611.74 10 785 179.463 785 388Z" stroke="white" stroke-width="20"/>
</svg>
